<!DOCTYPE svg PUBLIC "-//W3C//DTD SVG 1.1//EN" "http://www.w3.org/Graphics/SVG/1.1/DTD/svg11.dtd"><svg aria-hidden="true" xmlns="http://www.w3.org/2000/svg" xmlns:xlink="http://www.w3.org/1999/xlink"><symbol viewBox="0 0 220 220" fill="none" id="btn-play" xmlns="http://www.w3.org/2000/svg">
<path d="M110 15C57.5366 15 15 57.5366 15 110C15 162.463 57.5366 205 110 205C162.463 205 205 162.463 205 110C205 57.5366 162.463 15 110 15ZM145.277 111.075L91.8394 142.969C91.4568 143.201 90.9696 143.213 90.5755 142.981C90.1929 142.76 89.9494 142.349 89.9494 141.891V109.997V78.1026C89.9494 77.6506 90.1929 77.2332 90.5755 77.0124C90.9696 76.7864 91.4568 76.7979 91.8394 77.0239L145.277 108.924C145.66 109.141 145.886 109.561 145.886 109.996C145.886 110.44 145.66 110.852 145.277 111.075Z" fill="currentColor"/>
<path d="M220 110C220 170.751 170.751 220 110 220C49.2487 220 0 170.751 0 110C0 49.2487 49.2487 0 110 0C170.751 0 220 49.2487 220 110ZM2.1099 110C2.1099 169.586 50.4139 217.89 110 217.89C169.586 217.89 217.89 169.586 217.89 110C217.89 50.4139 169.586 2.1099 110 2.1099C50.4139 2.1099 2.1099 50.4139 2.1099 110Z" fill="currentColor"/>
</symbol><symbol viewBox="0 0 53 24" fill="none" id="card-arrow" xmlns="http://www.w3.org/2000/svg">
<path fill-rule="evenodd" clip-rule="evenodd" d="M53 11.7391V12.2608C47.9959 14.8695 43.7868 18.8206 42.2426 24C42.2416 24.0034 41.8883 23.7868 41.8695 23.7804C41.8505 23.774 41.8904 23.7837 41.8916 23.7797C43.0619 19.8175 47.4955 15.118 50.7403 12.2608C34.8781 12.6298 15.8487 12.0746 0 12.5217V11.4782L50.7403 11.7391C47.4955 8.88197 43.1601 4.00576 41.9802 1.50748e-05L42.5244 0C44.0551 5.18957 47.318 8.34781 53 11.7391Z" fill="currentColor"/>
</symbol><symbol viewBox="0 0 800 800" fill="none" id="contacts" xmlns="http://www.w3.org/2000/svg">
<path d="M550 750H500V625C499.961 591.86 486.779 560.088 463.345 536.655C439.912 513.221 408.14 500.039 375 500H225C191.86 500.039 160.088 513.221 136.655 536.655C113.221 560.088 100.039 591.86 100 625V750H50V625C50.0543 578.604 68.5091 534.123 101.316 501.316C134.123 468.509 178.604 450.054 225 450H375C421.396 450.054 465.877 468.509 498.684 501.316C531.491 534.123 549.946 578.604 550 625V750Z" fill="currentColor"/>
<path d="M300 100C324.723 100 348.89 107.331 369.446 121.066C390.002 134.801 406.024 154.324 415.485 177.165C424.946 200.005 427.421 225.139 422.598 249.386C417.775 273.634 405.87 295.907 388.388 313.388C370.907 330.87 348.634 342.775 324.386 347.598C300.139 352.421 275.005 349.946 252.165 340.485C229.324 331.024 209.802 315.002 196.066 294.446C182.331 273.89 175 249.723 175 225C175 191.848 188.17 160.054 211.612 136.612C235.054 113.17 266.848 100 300 100ZM300 50C265.388 50 231.554 60.2636 202.775 79.4928C173.997 98.7221 151.566 126.053 138.321 158.03C125.076 190.007 121.61 225.194 128.363 259.141C135.115 293.087 151.782 324.269 176.256 348.744C200.731 373.218 231.913 389.885 265.859 396.637C299.806 403.39 334.993 399.924 366.97 386.679C398.947 373.434 426.278 351.003 445.507 322.225C464.737 293.446 475 259.612 475 225C475 178.587 456.563 134.075 423.744 101.256C390.925 68.4374 346.413 50 300 50Z" fill="currentColor"/>
<path d="M617.697 543.403C639.393 543.661 652.099 532.766 659.94 513.249C684.626 451.789 684.098 348.541 658.047 286.411L657.947 286.186C654.64 278.438 649.308 271.654 642.533 266.574C635.759 261.495 627.802 258.314 619.532 257.38L594.173 253.994C580.581 252.965 575.654 261.41 578.333 274.073C581.532 289.049 585.333 303.937 589.177 318.746C592.244 330.613 599.697 335.305 612.192 335.236C617.716 335.201 626.554 339.34 628.515 343.854C638.851 367.451 638.835 433.279 629.284 456.62C627.792 460.265 621.096 464.673 617.637 464.026C598.117 460.153 591.229 471.12 587.647 486.988C584.976 498.865 582.179 510.614 579.721 522.498C576.914 536.057 582.136 544.113 596.586 544.37L617.697 543.403Z" fill="currentColor" stroke="currentColor" stroke-width="5" stroke-linecap="round" stroke-linejoin="round"/>
</symbol><symbol viewBox="0 -7 512.00032 512" id="dog-house" xmlns="http://www.w3.org/2000/svg"><path d="m190.601562 237.433594c7.585938 0 14.953126-2.773438 20.625-7.851563 5.953126-5.332031 9.59375-12.769531 10.1875-20.683593h69.175782c1.296875 17.363281 16.734375 30.285156 34.238281 28.34375 25.214844-2.792969 36.316406-33.457032 18.914063-51.792969 8.335937-8.796875 10.730468-21.539063 6.0625-32.886719-12.394532-30.132812-56.632813-22.597656-59.207032 9.328125h-69.195312c-2.582032-31.988281-46.835938-39.394531-59.203125-9.332031-4.667969 11.351562-2.277344 24.09375 6.058593 32.890625-18.382812 19.371093-4.832031 51.984375 22.34375 51.984375zm-10.902343-61.75c-5.707031-5.46875-5.613281-12.582032-3.628907-17.414063 7.054688-17.140625 32.585938-10.089843 30.304688 7.976563-.714844 5.65625 3.671875 10.648437 9.347656 10.648437h80.53125c5.699219 0 10.078125-5.015625 9.371094-10.664062-1.175781-9.367188 6.378906-17.769531 15.738281-17.769531 14.125 0 21.191407 17.390624 10.9375 27.222656-5.585937 5.359375-5.574219 14.175781.011719 19.539062 4.519531 4.34375 6.003906 10.503906 3.976562 16.480469-3.878906 11.410156-17.507812 13.863281-25.507812 6.699219-3.9375-3.523438-5.980469-8.925782-5.058594-14.425782.882813-5.273437-3.207031-10.082031-8.5625-10.082031h-81.40625c-2.71875 0-5.304687 1.171875-7.097656 3.207031-3.265625 3.714844-2.160156 7.464844-2.160156 9.503907 0 9.144531-7.882813 16.808593-17.671875 15.726562-13.171875-1.460937-18.808594-17.816406-9.136719-27.109375 5.582031-5.363281 5.597656-14.179687.011719-19.539062zm0 0"/><path d="m450.148438 297.21875c4.140624 0 7.5-3.359375 7.5-7.5v-92.140625l13.296874 9.203125c11.890626 8.234375 28.175782 5.277344 36.410157-6.617188 8.214843-11.863281 5.246093-28.199218-6.617188-36.414062l-229.84375-159.125c-8.910156-6.167969-20.882812-6.167969-29.792969 0l-229.835937 159.125c-11.867187 8.214844-14.835937 24.550781-6.621094 36.414062 8.214844 11.863282 24.546875 14.832032 36.414063 6.621094l13.292968-9.207031v254.65625c-7.128906 2.457031-12.273437 9.214844-12.273437 17.167969v10.667968c0 10.019532 8.152344 18.171876 18.167969 18.171876h178.25c4.144531 0 7.503906-3.359376 7.503906-7.503907 0-4.140625-3.359375-7.5-7.503906-7.5h-178.25c-1.746094 0-3.167969-1.417969-3.167969-3.167969v-10.667968c0-1.746094 1.421875-3.167969 3.167969-3.167969h391.507812c1.746094 0 3.167969 1.421875 3.167969 3.167969v10.667968c0 1.746094-1.421875 3.167969-3.167969 3.167969h-178.253906c-4.140625 0-7.5 3.359375-7.5 7.5 0 4.144531 3.359375 7.503907 7.5 7.503907h178.253906c10.019532 0 18.167969-8.152344 18.167969-18.171876v-10.667968c0-7.953125-5.144531-14.710938-12.273437-17.167969 0-6.632813 0-121.578125 0-127.515625 0-4.140625-3.359376-7.5-7.5-7.5-4.144532 0-7.503907 3.359375-7.503907 7.5v78.28125h-82.636719v-37.996094c0-57.347656-46.65625-104.003906-104.007812-104.003906s-104.007812 46.65625-104.007812 104.003906v37.996094h-82.636719v-215.808594c9.320312-6.453125 178.089843-123.296875 186.644531-129.21875 13.640625 9.441406 180.976562 125.292969 186.644531 129.21875v102.523438c0 4.144531 3.359375 7.503906 7.503907 7.503906zm-90.140626 120.78125h82.636719v33.234375h-82.636719zm-193.011718-52.996094c0-49.074218 39.925781-89.003906 89.003906-89.003906s89.003906 39.929688 89.003906 89.003906v86.230469h-178.007812c0-9.257813 0-75.199219 0-86.230469zm-15.003906 52.996094v33.234375h-82.636719v-33.234375zm108.277343-375.320312c-1.925781-1.332032-4.324219-1.664063-6.484375-1-.71875.222656-1.414062.558593-2.054687 1-9.691407 6.710937-209.640625 145.140624-219.210938 151.769531-5.066406 3.503906-12.035156 2.238281-15.539062-2.824219-3.507813-5.066406-2.238281-12.035156 2.824219-15.539062l229.839843-159.125c3.800781-2.632813 8.910157-2.632813 12.710938 0l229.839843 159.125c5.0625 3.503906 6.332032 10.476562 2.824219 15.539062-3.511719 5.070312-10.460937 6.339844-15.535156 2.824219-9.558594-6.617188-209.585937-145.101563-219.214844-151.769531zm0 0"/></symbol><symbol viewBox="0 0 734 384" fill="none" id="eye-close" xmlns="http://www.w3.org/2000/svg">
<path fill-rule="evenodd" clip-rule="evenodd" d="M20.201 2.70361C37.122 -4.54806 56.718 3.29029 63.97 20.2113L33.3317 33.342C63.97 20.2113 63.9747 20.2223 63.97 20.2113L63.9527 20.1713C63.9503 20.1653 63.9433 20.1496 63.9527 20.1713L64.0833 20.4666C64.217 20.7673 64.4464 21.2779 64.773 21.9846C65.426 23.3986 66.4657 25.5946 67.8987 28.461C70.7673 34.1983 75.198 42.5903 81.2457 52.7506C93.379 73.1346 111.813 100.283 136.925 127.327C142.844 133.7 149.108 140.046 155.724 146.276C156.001 146.53 156.274 146.786 156.544 147.046C206.034 193.39 275.076 233.343 366.667 233.343C406.963 233.343 442.61 225.65 474.03 213.283C514.897 197.196 549.15 172.98 577.187 146.666C608.84 116.955 632.09 85.0099 647.44 60.3749C655.087 48.1056 660.69 37.7813 664.33 30.6449C666.147 27.0803 667.47 24.3226 668.303 22.529C668.723 21.6323 669.02 20.9776 669.193 20.5843L669.36 20.2113C676.617 3.29962 696.213 -4.54639 713.13 2.70361C730.05 9.95561 737.89 29.5516 730.637 46.4726L700 33.342C730.637 46.4726 730.64 46.465 730.637 46.4726L730.563 46.6399L730.447 46.9139L730.063 47.7756C729.747 48.4863 729.3 49.4676 728.727 50.699C727.58 53.161 725.913 56.6266 723.717 60.9329C719.33 69.5383 712.8 81.5443 704.02 95.6309C690.6 117.17 671.733 143.883 646.987 170.82L673.57 197.4C686.587 210.416 686.587 231.523 673.57 244.54C660.55 257.556 639.447 257.556 626.427 244.54L598.423 216.533C579.613 231.726 558.567 246.053 535.193 258.416L561.27 298.496C571.31 313.926 566.943 334.573 551.51 344.616C536.08 354.656 515.433 350.286 505.393 334.856L472.543 284.37C449.91 291.31 425.733 296.226 400 298.53V350.01C400 368.42 385.073 383.343 366.667 383.343C348.257 383.343 333.333 368.42 333.333 350.01V298.536C307.51 296.23 283.338 291.303 260.778 284.383L227.938 334.856C217.898 350.286 197.249 354.656 181.819 344.616C166.388 334.573 162.019 313.926 172.059 298.496L198.139 258.413C174.802 246.063 153.748 231.733 134.915 216.526L106.902 244.54C93.8847 257.556 72.779 257.556 59.7617 244.54C46.744 231.523 46.744 210.416 59.7617 197.4L86.343 170.82C58.1763 140.16 37.5907 109.75 23.9597 86.8496C16.9867 75.1349 11.7817 65.2979 8.27002 58.2749C6.51302 54.7609 5.17635 51.944 4.25068 49.94C3.78768 48.938 3.42735 48.1383 3.16835 47.5556L2.85535 46.8463L2.75568 46.6166L2.72001 46.534L2.70568 46.5006C2.69935 46.4859 2.69368 46.4726 33.3317 33.342L2.70568 46.5006C-4.54622 29.5796 3.28002 9.95561 20.201 2.70361Z" fill="currentColor"/>
</symbol><symbol viewBox="0 0 667 534" fill="none" id="eye-open" xmlns="http://www.w3.org/2000/svg">
<path d="M258 267C258 225.58 291.58 192 333 192C374.42 192 408 225.58 408 267C408 308.42 374.42 342 333 342C291.58 342 258 308.42 258 267Z" fill="currentColor"/>
<path fill-rule="evenodd" clip-rule="evenodd" d="M0 266.667C0 321.313 14.1653 339.717 42.4963 376.523C99.0653 450.013 193.937 533.333 333.333 533.333C472.73 533.333 567.6 450.013 624.17 376.523C652.5 339.717 666.667 321.313 666.667 266.667C666.667 212.02 652.5 193.618 624.17 156.811C567.6 83.3187 472.73 0 333.333 0C193.937 0 99.0653 83.3187 42.4963 156.811C14.1653 193.618 0 212.02 0 266.667ZM333.333 141.667C264.298 141.667 208.333 197.631 208.333 266.667C208.333 335.703 264.298 391.667 333.333 391.667C402.37 391.667 458.333 335.703 458.333 266.667C458.333 197.631 402.37 141.667 333.333 141.667Z" fill="currentColor"/>
</symbol><symbol viewBox="0 0 8 14" fill="none" id="facebook" xmlns="http://www.w3.org/2000/svg">
<path d="M4.66773 13.6666V7.58467H6.70921L7.01485 5.21442H4.66773V3.70109C4.66773 3.01486 4.85831 2.54716 5.84245 2.54716L7.09759 2.54658V0.426669C6.88041 0.397889 6.13541 0.333374 5.26864 0.333374C3.45901 0.333374 2.2201 1.43792 2.2201 3.46647V5.21448H0.17334V7.58473H2.22004V13.6667L4.66773 13.6666Z" fill="currentColor"/>
</symbol><symbol viewBox="0 0 40 32" fill="none" id="first-quote" xmlns="http://www.w3.org/2000/svg">
<path d="M2.93757 30.1589C5.23191 32.6137 9.11464 32.6137 11.5855 30.1589C13.8798 27.7041 13.8798 24.0219 11.409 21.7425C10.1736 20.5151 8.76166 20.1644 7.34976 19.8137C4.52596 19.2877 0.290251 9.4685 13.8798 0.526031L13.5268 0C6.29083 3.68219 4.70245 7.18904 2.76108 10.3452C-1.12165 17.5343 -0.768676 26.6521 2.93757 30.1589ZM29.0578 30.1589C31.3521 32.6137 35.2348 32.6137 37.7057 30.1589C40 27.7041 40 24.0219 37.5292 21.7425C36.2938 20.5151 34.8819 20.1644 33.47 19.8137C30.6461 19.2877 26.4104 9.4685 40 0.526031L39.647 0C32.411 3.68219 30.8226 7.18904 28.8813 10.3452C24.9985 17.5343 25.3515 26.6521 29.0578 30.1589Z" fill="currentColor"/>
</symbol><symbol viewBox="0 0 24 24" fill="none" id="instagram" xmlns="http://www.w3.org/2000/svg">
<g clip-path="url(#iclip0_1_7680)">
<path d="M12 2.16094C15.2063 2.16094 15.5859 2.175 16.8469 2.23125C18.0188 2.28281 18.6516 2.47969 19.0734 2.64375C19.6313 2.85938 20.0344 3.12188 20.4516 3.53906C20.8734 3.96094 21.1313 4.35938 21.3469 4.91719C21.5109 5.33906 21.7078 5.97656 21.7594 7.14375C21.8156 8.40937 21.8297 8.78906 21.8297 11.9906C21.8297 15.1969 21.8156 15.5766 21.7594 16.8375C21.7078 18.0094 21.5109 18.6422 21.3469 19.0641C21.1313 19.6219 20.8687 20.025 20.4516 20.4422C20.0297 20.8641 19.6313 21.1219 19.0734 21.3375C18.6516 21.5016 18.0141 21.6984 16.8469 21.75C15.5813 21.8062 15.2016 21.8203 12 21.8203C8.79375 21.8203 8.41406 21.8062 7.15313 21.75C5.98125 21.6984 5.34844 21.5016 4.92656 21.3375C4.36875 21.1219 3.96563 20.8594 3.54844 20.4422C3.12656 20.0203 2.86875 19.6219 2.65313 19.0641C2.48906 18.6422 2.29219 18.0047 2.24063 16.8375C2.18438 15.5719 2.17031 15.1922 2.17031 11.9906C2.17031 8.78438 2.18438 8.40469 2.24063 7.14375C2.29219 5.97187 2.48906 5.33906 2.65313 4.91719C2.86875 4.35938 3.13125 3.95625 3.54844 3.53906C3.97031 3.11719 4.36875 2.85938 4.92656 2.64375C5.34844 2.47969 5.98594 2.28281 7.15313 2.23125C8.41406 2.175 8.79375 2.16094 12 2.16094ZM12 0C8.74219 0 8.33438 0.0140625 7.05469 0.0703125C5.77969 0.126563 4.90313 0.332812 4.14375 0.628125C3.35156 0.9375 2.68125 1.34531 2.01563 2.01562C1.34531 2.68125 0.9375 3.35156 0.628125 4.13906C0.332812 4.90313 0.126563 5.775 0.0703125 7.05C0.0140625 8.33437 0 8.74219 0 12C0 15.2578 0.0140625 15.6656 0.0703125 16.9453C0.126563 18.2203 0.332812 19.0969 0.628125 19.8563C0.9375 20.6484 1.34531 21.3188 2.01563 21.9844C2.68125 22.65 3.35156 23.0625 4.13906 23.3672C4.90313 23.6625 5.775 23.8687 7.05 23.925C8.32969 23.9812 8.7375 23.9953 11.9953 23.9953C15.2531 23.9953 15.6609 23.9812 16.9406 23.925C18.2156 23.8687 19.0922 23.6625 19.8516 23.3672C20.6391 23.0625 21.3094 22.65 21.975 21.9844C22.6406 21.3188 23.0531 20.6484 23.3578 19.8609C23.6531 19.0969 23.8594 18.225 23.9156 16.95C23.9719 15.6703 23.9859 15.2625 23.9859 12.0047C23.9859 8.74688 23.9719 8.33906 23.9156 7.05938C23.8594 5.78438 23.6531 4.90781 23.3578 4.14844C23.0625 3.35156 22.6547 2.68125 21.9844 2.01562C21.3188 1.35 20.6484 0.9375 19.8609 0.632812C19.0969 0.3375 18.225 0.13125 16.95 0.075C15.6656 0.0140625 15.2578 0 12 0Z" fill="currentColor"/>
<path d="M12 5.83594C8.59688 5.83594 5.83594 8.59688 5.83594 12C5.83594 15.4031 8.59688 18.1641 12 18.1641C15.4031 18.1641 18.1641 15.4031 18.1641 12C18.1641 8.59688 15.4031 5.83594 12 5.83594ZM12 15.9984C9.79219 15.9984 8.00156 14.2078 8.00156 12C8.00156 9.79219 9.79219 8.00156 12 8.00156C14.2078 8.00156 15.9984 9.79219 15.9984 12C15.9984 14.2078 14.2078 15.9984 12 15.9984Z" fill="currentColor"/>
<path d="M19.8469 5.59214C19.8469 6.38902 19.2 7.0312 18.4078 7.0312C17.6109 7.0312 16.9688 6.38433 16.9688 5.59214C16.9688 4.79526 17.6156 4.15308 18.4078 4.15308C19.2 4.15308 19.8469 4.79995 19.8469 5.59214Z" fill="currentColor"/>
</g>
<defs>
<clipPath id="iclip0_1_7680">
<rect width="24" height="24" fill="currentColor"/>
</clipPath>
</defs>
</symbol><symbol viewBox="0 0 40 32" fill="none" id="last-quote" xmlns="http://www.w3.org/2000/svg">
<path d="M37.0624 30.1589C34.7681 32.6137 30.8854 32.6137 28.4145 30.1589C26.1202 27.7041 26.1202 24.0219 28.591 21.7425C29.8264 20.5151 31.2383 20.1644 32.6502 19.8137C35.474 19.2877 39.7097 9.4685 26.1202 0.526031L26.4732 0C33.7092 3.68219 35.2976 7.18904 37.2389 10.3452C41.1217 17.5343 40.7687 26.6521 37.0624 30.1589ZM10.9422 30.1589C8.6479 32.6137 4.76517 32.6137 2.29434 30.1589C0 27.7041 0 24.0219 2.47083 21.7425C3.70624 20.5151 5.11815 20.1644 6.53005 19.8137C9.35385 19.2877 13.5896 9.4685 0 0.526031L0.352974 0C7.58897 3.68219 9.17736 7.18904 11.1187 10.3452C15.0015 17.5343 14.6485 26.6521 10.9422 30.1589Z" fill="currentColor"/>
</symbol><symbol viewBox="0 0 74 33" fill="none" id="left-arrow" xmlns="http://www.w3.org/2000/svg">
<path fill-rule="evenodd" clip-rule="evenodd" d="M74 16.1413V16.8587C67.0131 20.4456 61.1363 25.8783 58.9802 32.9999C58.9788 33.0047 58.4856 32.7068 58.4593 32.6981C58.4328 32.6893 58.4885 32.7025 58.4902 32.6971C60.1241 27.2491 66.3144 20.7872 70.845 16.8587C48.6978 17.3659 22.1284 16.6025 0 17.2174V15.7826L70.845 16.1413C66.3144 12.2127 60.2612 5.50793 58.6139 2.69928e-05L59.3737 6.26502e-06C61.5109 7.13566 66.0666 11.4782 74 16.1413Z" fill="currentColor"/>
</symbol><symbol viewBox="0 0 800 800" fill="none" id="log-in" xmlns="http://www.w3.org/2000/svg">
<path d="M750 750H700V625C699.962 591.86 686.781 560.087 663.347 536.653C639.913 513.219 608.14 500.038 575 500V450C621.397 450.052 665.879 468.506 698.687 501.313C731.494 534.121 749.948 578.603 750 625V750Z" fill="currentColor"/>
<path d="M550 750H500V625C499.961 591.86 486.779 560.088 463.345 536.655C439.912 513.221 408.14 500.039 375 500H225C191.86 500.039 160.088 513.221 136.655 536.655C113.221 560.088 100.039 591.86 100 625V750H50V625C50.0543 578.604 68.5091 534.123 101.316 501.316C134.123 468.509 178.604 450.054 225 450H375C421.396 450.054 465.877 468.509 498.684 501.316C531.491 534.123 549.946 578.604 550 625V750Z" fill="currentColor"/>
<path d="M500 50V100C533.152 100 564.946 113.17 588.388 136.612C611.83 160.054 625 191.848 625 225C625 258.152 611.83 289.946 588.388 313.388C564.946 336.83 533.152 350 500 350V400C546.413 400 590.925 381.563 623.744 348.744C656.563 315.925 675 271.413 675 225C675 178.587 656.563 134.075 623.744 101.256C590.925 68.4374 546.413 50 500 50Z" fill="currentColor"/>
<path d="M300 100C324.723 100 348.89 107.331 369.446 121.066C390.002 134.801 406.024 154.324 415.485 177.165C424.946 200.005 427.421 225.139 422.598 249.386C417.775 273.634 405.87 295.907 388.388 313.388C370.907 330.87 348.634 342.775 324.386 347.598C300.139 352.421 275.005 349.946 252.165 340.485C229.324 331.024 209.802 315.002 196.066 294.446C182.331 273.89 175 249.723 175 225C175 191.848 188.17 160.054 211.612 136.612C235.054 113.17 266.848 100 300 100ZM300 50C265.388 50 231.554 60.2636 202.775 79.4928C173.997 98.7221 151.566 126.053 138.321 158.03C125.076 190.007 121.61 225.194 128.363 259.141C135.115 293.087 151.782 324.269 176.256 348.744C200.731 373.218 231.913 389.885 265.859 396.637C299.806 403.39 334.993 399.924 366.97 386.679C398.947 373.434 426.278 351.003 445.507 322.225C464.737 293.446 475 259.612 475 225C475 178.587 456.563 134.075 423.744 101.256C390.925 68.4374 346.413 50 300 50Z" fill="currentColor"/>
</symbol><symbol viewBox="0 0 217 78" fill="none" id="logo" xmlns="http://www.w3.org/2000/svg">
<path d="M22.0115 0H0.37707L0 4.07611H0.0471338C3.39363 2.48315 5.56179 0.749629 8.05988 0.749629H9.04969V30.1726H13.3389V0.749629H14.2815C16.7796 0.749629 19.0421 2.53 22.3886 4.12297H22.4828L22.0115 0Z" fill="currentColor"/>
<path d="M48.6226 0V14.1024H33.7754V0H29.5334V30.1726H33.7754V14.8521H48.6226V30.1726H52.8646V0H48.6226Z" fill="currentColor"/>
<path d="M68.9704 29.423H66.5666V14.8521H74.485V14.1024H66.5666V0.749629H68.9704C72.5526 0.749629 76.7946 1.03074 78.3971 5.29426H79.2927L79.2456 0H62.3245V30.1726H79.2456L79.2927 24.8784H78.3971C76.7946 29.1419 72.5526 29.423 68.9704 29.423Z" fill="currentColor"/>
<path d="M139.638 0C138.365 3.93556 137.328 6.93408 135.16 12.978L131.483 23.5665L123.376 0H123.188L114.892 23.5665L106.785 0H102.26L113.007 30.8286H113.148L121.491 7.21519L129.692 30.8286H129.834L135.961 13.2591C137.799 8.10538 139.119 4.31038 140.91 0H139.638Z" fill="currentColor"/>
<path d="M152.236 30.1726V0H147.994V30.1726H152.236Z" fill="currentColor"/>
<path d="M177.802 24.8784C176.199 29.1419 171.957 29.423 168.375 29.423H165.971V0H161.729V30.1726H178.65L178.697 24.8784H177.802Z" fill="currentColor"/>
<path d="M196.564 0H185.959V30.1726H195.857C206.179 30.1726 212.636 24.5036 212.636 14.7584C212.636 5.20056 206.179 0 196.564 0ZM196.564 29.5167C193.217 29.5167 191.285 29.3761 190.201 29.1419V0.702778H196.187C203.351 0.702778 207.97 6.41871 207.97 14.9926C207.97 24.2693 203.822 29.5167 196.564 29.5167Z" fill="currentColor"/>
<path d="M7.19361 77.0245V46.8519H2.95157V77.0245H7.19361ZM25.7643 46.9456V46.8519H24.1618C21.8522 49.054 18.9771 51.7245 14.4994 55.9412L8.51336 61.5634L18.9299 77.0245H24.5389L12.0013 59.4082L15.0178 56.5503C18.8828 52.8958 22.2293 49.8036 25.7643 46.9456Z" fill="currentColor"/>
<path d="M36.9929 77.0245V46.8519H32.7508V77.0245H36.9929Z" fill="currentColor"/>
<path d="M66.7534 46.8519C66.7534 46.8519 66.7534 47.3204 66.7534 60.0642V70.231L50.1152 46.8519H45.0719V46.9925L47.0986 49.8036V76.9777H47.9471V50.9749L67.2248 77.5399H67.6019V46.8519H66.7534Z" fill="currentColor"/>
<path d="M92.5275 63.3438L92.9989 64.0934H99.9747V74.3071C98.1365 75.7595 95.3084 76.7903 92.2447 76.7903C85.1747 76.7903 80.5084 70.6527 80.5084 61.8914C80.5084 52.8958 84.7505 47.0393 91.3963 47.0393C93.5645 47.0393 94.8371 48.3512 95.7798 50.0847C97.2881 52.8021 100.917 53.4112 103.133 51.256L103.227 51.2091C100.729 48.4449 96.6753 46.3834 91.7734 46.3834C82.6766 46.3834 75.8422 52.5678 75.8422 62.1725C75.8422 71.8708 82.2995 77.5399 92.0562 77.5399C97.4295 77.5399 101.2 75.7127 103.887 73.7449V63.3438H92.5275Z" fill="currentColor"/>
<path d="M122.949 46.8519H112.344V77.0245H122.242C132.565 77.0245 139.022 71.3555 139.022 61.6103C139.022 52.0525 132.565 46.8519 122.949 46.8519ZM122.949 76.3686C119.603 76.3686 117.67 76.2281 116.586 75.9938V47.5547H122.572C129.737 47.5547 134.356 53.2706 134.356 61.8445C134.356 71.1212 130.208 76.3686 122.949 76.3686Z" fill="currentColor"/>
<path d="M162.053 46.3834C153.003 46.3834 146.027 52.5678 146.027 62.2662C146.027 71.7771 152.862 77.5399 161.534 77.5399C170.537 77.5399 177.56 71.3555 177.56 61.6571C177.56 52.1462 170.725 46.3834 162.053 46.3834ZM161.959 76.884C155.313 76.884 150.694 70.8401 150.694 61.7977C150.694 52.8958 155.03 47.0393 161.723 47.0393C168.275 47.0393 172.894 53.0832 172.894 62.1256C172.894 71.0275 168.557 76.884 161.959 76.884Z" fill="currentColor"/>
<path d="M213.702 46.8519H209.884L201.07 69.0597L191.031 46.8519H186.459V46.9925L187.354 48.9602L184.715 76.9777H185.516L188.014 50.5064L199.326 75.1505H199.515L209.696 49.4756L212.288 77.0245H216.577L213.702 46.8519Z" fill="currentColor"/>
</symbol><symbol viewBox="0 0 434 512" fill="none" id="pet-dialog" xmlns="http://www.w3.org/2000/svg">
<path d="M430.48 182.994C429.843 178.901 426.009 176.098 421.916 176.736C417.823 177.373 415.021 181.207 415.658 185.3C417.254 195.556 418.062 206.064 418.062 216.532C418.062 308.412 356.024 388.644 267.197 411.643C265.327 412.127 263.716 413.314 262.699 414.957L216.53 489.56L170.361 414.957C169.344 413.314 167.734 412.127 165.863 411.643C77.037 388.644 14.999 308.411 14.999 216.531C14.999 105.407 105.406 15 216.531 15C302.053 15 378.507 69.195 406.774 149.858C408.144 153.766 412.423 155.826 416.333 154.456C420.242 153.086 422.3 148.807 420.931 144.897C390.558 58.229 308.416 0 216.531 0C158.694 0 104.318 22.523 63.42 63.42C22.522 104.317 0 158.693 0 216.531C0 314.235 65.297 399.681 159.175 425.383L210.154 507.758C211.521 509.967 213.934 511.311 216.531 511.311C219.128 511.311 221.542 509.967 222.908 507.758L273.887 425.383C367.765 399.681 433.062 314.235 433.062 216.531C433.062 205.294 432.193 194.011 430.48 182.994Z" fill="currentColor"/>
<path d="M140.141 372.554C164.037 384.249 189.738 390.179 216.531 390.179C312.47 390.179 390.523 312.126 390.523 216.187C390.523 120.248 312.47 42.194 216.531 42.194C120.592 42.194 42.5381 120.247 42.5381 216.187C42.5381 269.422 66.4301 319.019 108.088 352.259C111.325 354.843 116.045 354.312 118.628 351.074C121.211 347.836 120.681 343.117 117.443 340.534C79.3721 310.156 57.5381 264.832 57.5381 216.186C57.5381 128.518 128.862 57.194 216.53 57.194C304.198 57.194 375.522 128.518 375.522 216.186C375.522 303.854 304.198 375.178 216.53 375.178C192.042 375.178 168.559 369.762 146.734 359.081C143.015 357.26 138.522 358.8 136.701 362.52C134.88 366.24 136.42 370.733 140.141 372.554Z" fill="currentColor"/>
<path d="M175.913 208.569C165.296 232.91 150.838 245.805 150.708 245.92C150.681 245.943 150.655 245.966 150.628 245.99C141.292 254.35 135.937 266.325 135.937 278.846C135.937 292.804 142.321 305.678 153.452 314.167C165.358 323.247 181.142 326.289 195.673 322.304C201.885 320.601 209.096 319.701 216.526 319.701C224.079 319.701 231.396 320.631 237.683 322.389C241.959 323.586 246.331 324.176 250.684 324.176C260.058 324.176 269.335 321.441 277.332 316.157C288.412 308.837 295.435 297.759 297.109 284.962C297.109 284.96 297.109 284.958 297.11 284.955C299.157 269.2 293.077 254.049 280.831 244.322C276.346 239.821 265.72 227.889 257.289 208.564C250.416 192.096 234.452 181.459 216.598 181.459C198.75 181.46 182.788 192.1 175.913 208.569ZM243.465 214.384C243.482 214.423 243.498 214.463 243.515 214.501C253.178 236.679 265.654 250.403 270.57 255.274C270.784 255.486 271.01 255.685 271.248 255.869C279.504 262.285 283.613 272.436 282.237 283.024C281.134 291.438 276.457 298.76 269.065 303.643C260.987 308.98 251.022 310.548 241.727 307.945C234.141 305.823 225.427 304.701 216.527 304.701C207.777 304.701 199.194 305.785 191.708 307.838C181.659 310.594 170.759 308.502 162.549 302.24C155.061 296.529 150.938 288.221 150.938 278.846C150.938 270.597 154.462 262.706 160.608 257.189C161.834 256.11 177.851 241.678 189.689 214.505C189.706 214.466 189.723 214.427 189.739 214.388C194.265 203.497 204.808 196.46 216.599 196.46C228.394 196.46 238.94 203.496 243.465 214.384Z" fill="currentColor"/>
<path d="M153.037 182.527C149.232 175.164 143.436 169.294 136.716 165.997C129.351 162.384 121.414 162.231 114.943 165.578C101.96 172.285 98.3488 190.239 106.725 206.453C113.019 218.632 124.028 225.863 134.621 225.863C138.128 225.863 141.59 225.07 144.819 223.402C157.803 216.694 161.413 198.74 153.037 182.527ZM137.934 210.075C132.699 212.778 124.341 207.869 120.051 199.568C115.762 191.265 116.593 181.61 121.83 178.903C122.876 178.362 123.976 178.157 125.039 178.157C127.05 178.157 128.936 178.888 130.11 179.464C133.907 181.326 137.406 184.953 139.711 189.413C144 197.715 143.17 207.37 137.934 210.075Z" fill="currentColor"/>
<path d="M255.38 104.415C249.982 103.734 244.589 105.344 239.79 109.086C232.558 114.726 227.282 124.843 226.022 135.488C225.023 143.93 226.389 152.329 229.867 159.138C233.794 166.826 240.139 171.717 247.192 172.547C248.011 172.652 248.831 172.705 249.649 172.705C254.227 172.705 258.741 171.056 262.835 167.864C270.059 162.232 275.33 152.123 276.593 141.478C277.592 133.036 276.225 124.637 272.745 117.829C268.825 110.159 262.497 105.272 255.38 104.415ZM261.697 139.714C260.914 146.316 257.665 152.875 253.612 156.034C251.994 157.295 250.482 157.848 249.029 157.659C246.982 157.418 244.812 155.42 243.225 152.314C241.115 148.184 240.274 142.693 240.918 137.25C241.699 130.646 244.953 124.081 249.014 120.914C250.42 119.817 251.754 119.264 252.986 119.264C253.159 119.264 253.33 119.275 253.498 119.297C253.524 119.3 253.551 119.303 253.578 119.307C255.628 119.549 257.8 121.549 259.388 124.656C261.499 128.785 262.34 134.274 261.697 139.714Z" fill="currentColor"/>
<path d="M180.058 104.207C172.459 104.207 165.546 108.669 161.092 116.451C157.146 123.347 155.492 132.444 156.553 141.408C158.619 158.912 170.503 172.624 183.607 172.624C191.206 172.624 198.12 168.159 202.577 160.373C206.525 153.474 208.179 144.378 207.116 135.416C205.051 117.915 193.165 104.207 180.058 104.207ZM189.558 152.921C188.749 154.335 186.549 157.623 183.607 157.623C178.966 157.623 172.645 149.771 171.449 139.645C170.767 133.89 171.762 128.003 174.11 123.9C174.918 122.488 177.115 119.205 180.058 119.205C184.701 119.205 191.025 127.054 192.22 137.173V137.178C192.903 142.93 191.908 148.816 189.558 152.921Z" fill="currentColor"/>
<path d="M288.242 223.417C291.471 225.086 294.932 225.878 298.44 225.878C309.032 225.878 320.043 218.646 326.337 206.467C334.71 190.257 331.101 172.301 318.12 165.591L318.119 165.59C311.645 162.244 303.708 162.398 296.344 166.012C289.624 169.309 283.828 175.179 280.024 182.543C271.65 198.754 275.26 216.708 288.242 223.417ZM293.35 189.427C295.654 184.967 299.154 181.341 302.951 179.478C304.125 178.902 306.013 178.17 308.025 178.17C309.089 178.17 310.188 178.375 311.234 178.915C316.469 181.623 317.299 191.28 313.012 199.581C308.72 207.884 300.363 212.794 295.128 210.09C289.892 207.385 289.062 197.729 293.35 189.427Z" fill="currentColor"/>
</symbol><symbol viewBox="-33 0 511 511.99862" id="pet-reward" xmlns="http://www.w3.org/2000/svg"><path d="m444.472656 420.816406-58.480468-107.789062-10.136719-18.539063c13.152343-7.683593 25.902343-16.175781 31.738281-30.242187 6.277344-15.144532 1.847656-31.847656-2.4375-48.003906-2.558594-9.65625-5.210938-19.640626-5.210938-28.484376 0-8.835937 2.648438-18.820312 5.210938-28.472656 4.285156-16.15625 8.714844-32.859375 2.4375-48.011718-3.40625-8.195313-9.421875-15.210938-18.9375-22.082032-3.414062-2.464844-8.171875-1.695312-10.636719 1.714844-2.464843 3.410156-1.695312 8.171875 1.714844 10.632812 7.132813 5.152344 11.511719 10.101563 13.785156 15.570313 4.304688 10.390625.714844 23.929687-3.089843 38.269531-2.8125 10.597656-5.71875 21.554688-5.71875 32.378906 0 10.828126 2.90625 21.789063 5.71875 32.390626 3.804687 14.335937 7.394531 27.878906 3.089843 38.261718-4.566406 11.007813-16.980469 18.136719-30.121093 25.679688-9.238282 5.304687-18.792969 10.789062-26.058594 18.054687-7.269532 7.273438-12.757813 16.824219-18.0625 26.066407-7.546875 13.140624-14.671875 25.550781-25.683594 30.117187-10.382812 4.308594-23.925781.71875-38.265625-3.085937-10.597656-2.808594-21.554687-5.714844-32.375-5.714844-10.824219 0-21.785156 2.90625-32.382813 5.71875-14.339843 3.800781-27.882812 7.390625-38.273437 3.082031-11.007813-4.566406-18.136719-16.980469-25.683594-30.125-5.300781-9.238281-10.78125-18.789063-18.046875-26.058594-6.675781-6.671875-15.035156-11.714843-24.476562-17.136719-.054688-.035156-.105469-.066406-.160156-.097656l-1.382813-.792968c-13.160156-7.550782-25.589844-14.683594-30.160156-25.703126-4.308594-10.390624-.71875-23.929687 3.082031-38.269531 2.808594-10.601562 5.714844-21.558593 5.714844-32.386719 0-10.820312-2.90625-21.777343-5.714844-32.375-3.800781-14.339843-7.390625-27.882812-3.082031-38.269531 4.5625-11.007812 16.972656-18.132812 30.113281-25.679687 9.242188-5.304688 18.796875-10.792969 26.066406-18.0625 7.265625-7.265625 12.75-16.816406 18.050782-26.054688 7.546874-13.140625 14.671874-25.554687 25.679687-30.117187 10.390625-4.308594 23.933594-.71875 38.273437 3.082031 10.597657 2.8125 21.558594 5.714844 32.382813 5.714844 10.820313 0 21.777344-2.902344 32.375-5.714844 14.339844-3.800781 27.886719-7.394531 38.269531-3.082031 11.007813 4.5625 18.132813 16.972656 25.679688 30.109375 5.304687 9.242187 10.792968 18.792968 18.0625 26.0625 5.894531 5.894531 13.246094 10.5625 19.660156 14.351562 3.621094 2.140625 8.292969.941406 10.433594-2.679687 2.140625-3.625.9375-8.292969-2.683594-10.433594-5.59375-3.304687-11.945312-7.320313-16.640625-12.011719-5.839844-5.839844-10.59375-14.113281-15.625-22.875-8.484375-14.773437-17.257813-30.046875-33.050781-36.59375-15.144532-6.285156-31.851563-1.855468-48.011719 2.429688-9.652344 2.558594-19.636719 5.207031-28.46875 5.207031-8.839844 0-18.824219-2.648437-28.480469-5.207031-16.15625-4.285156-32.863281-8.714844-48.011718-2.429688-15.800782 6.550782-24.570313 21.828125-33.054688 36.601563-5.027344 8.761719-9.777344 17.035156-15.613281 22.867187-5.839844 5.839844-14.117188 10.59375-22.878907 15.625-14.773437 8.484375-30.050781 17.257813-36.601562 33.058594-6.28125 15.144531-1.851562 31.851562 2.429688 48.007812 2.5625 9.652344 5.207031 19.632813 5.207031 28.46875 0 8.84375-2.648438 18.828126-5.207031 28.484376-4.28125 16.152343-8.707032 32.859374-2.429688 48.007812 5.8125 14.011719 18.484375 22.5 31.589844 30.15625l-68.484375 126.414062c-1.4062502 2.601563-1.183594 5.78125.574219 8.160157 1.757812 2.375 4.734374 3.523437 7.636718 2.933593l100.847656-20.398437 37.875 95.667969c1.089844 2.75 3.671876 4.625 6.625 4.800781.152344.007813.304688.015625.457032.015625 2.78125 0 5.355468-1.519531 6.695312-3.984375l60.824219-112.097656 60.8125 112.097656c1.335937 2.464844 3.914063 3.984375 6.695313 3.984375.152343 0 .304687-.003906.457031-.015625 2.953125-.175781 5.535156-2.046875 6.625-4.800781l37.882812-95.667969 100.84375 20.402344c2.894531.585937 5.875-.558594 7.632813-2.9375 1.761718-2.378907 1.984375-5.5625.570312-8.164063zm-287.957031 65.597656-34.21875-86.433593c-1.355469-3.429688-4.976563-5.390625-8.589844-4.660157l-91.132812 18.433594 60.503906-111.679687c5.746094 3.476562 10.796875 6.925781 14.714844 10.839843 5.835937 5.839844 10.582031 14.113282 15.613281 22.871094 8.484375 14.78125 17.253906 30.0625 33.054688 36.609375 15.148437 6.285157 31.855468 1.855469 48.015624-2.425781 4.203126-1.117188 8.46875-2.246094 12.679688-3.167969l7.132812 13.144531zm175.6875-91.09375c-3.613281-.734374-7.234375 1.230469-8.59375 4.660157l-34.226563 86.4375-66-121.648438c8.730469.082031 18.546876 2.679688 28.042969 5.199219 10.367188 2.75 20.960938 5.558594 31.222657 5.558594 5.730468 0 11.359374-.875 16.785156-3.128906 15.796875-6.550782 24.570312-21.828126 33.054687-36.601563 5.03125-8.761719 9.785157-17.039063 15.625-22.878906 3.941407-3.941407 9.007813-7.386719 14.574219-10.757813l9.929688 18.152344 50.691406 93.4375zm0 0"/><path d="m92.929688 230.800781c-3.914063 1.542969-5.835938 5.96875-4.292969 9.878907 10.507812 26.648437 28.550781 49.390624 52.179687 65.773437 24.191406 16.769531 52.59375 25.632813 82.132813 25.632813 79.582031 0 144.324219-64.746094 144.324219-144.324219 0-79.582031-64.742188-144.324219-144.324219-144.324219-79.578125 0-144.324219 64.742188-144.324219 144.324219 0 8.851562.808594 17.726562 2.40625 26.367187.761719 4.136719 4.742188 6.871094 8.871094 6.109375 4.136718-.765625 6.871094-4.738281 6.109375-8.875-1.429688-7.730469-2.152344-15.671875-2.152344-23.601562 0-71.179688 57.910156-129.089844 129.089844-129.089844 71.183593 0 129.089843 57.910156 129.089843 129.089844 0 71.179687-57.90625 129.089843-129.089843 129.089843-26.421875 0-51.820313-7.925781-73.449219-22.917968-21.144531-14.660156-37.289062-35.003906-46.6875-58.839844-1.542969-3.914062-5.96875-5.832031-9.882812-4.292969zm0 0"/><path d="m167.738281 221.429688c0 30.445312 24.769531 55.210937 55.210938 55.210937 30.445312 0 55.210937-24.765625 55.210937-55.210937 0-30.441407-24.765625-55.210938-55.210937-55.210938-30.441407 0-55.210938 24.765625-55.210938 55.210938zm95.191407 0c0 22.042968-17.9375 39.976562-39.980469 39.976562s-39.976563-17.933594-39.976563-39.976562c0-22.042969 17.933594-39.976563 39.976563-39.976563s39.980469 17.933594 39.980469 39.976563zm0 0"/><path d="m181.363281 100.355469c-14.300781 4.878906-21.96875 20.484375-17.085937 34.789062 3.882812 11.382813 14.554687 18.5625 25.960937 18.558594 2.929688 0 5.90625-.472656 8.828125-1.46875 6.925782-2.363281 12.519532-7.285156 15.75-13.855469 3.226563-6.574218 3.703125-14.007812 1.335938-20.933594h.003906c-4.878906-14.304687-20.488281-21.972656-34.792969-17.089843zm19.78125 31.304687c-1.4375 2.921875-3.917969 5.105469-7 6.15625-6.351562 2.164063-13.28125-1.238281-15.449219-7.589844-2.171874-6.355468 1.234376-13.289062 7.589844-15.457031 1.296875-.441406 2.617188-.652343 3.917969-.652343 5.066406 0 9.808594 3.191406 11.53125 8.246093 1.054687 3.078125.839844 6.378907-.589844 9.296875zm0 0"/><path d="m153.867188 144.734375c-12.679688-8.226563-29.683594-4.601563-37.910157 8.078125-8.226562 12.679688-4.601562 29.683594 8.078125 37.910156 4.496094 2.917969 9.625 4.421875 14.859375 4.421875 1.917969 0 3.847657-.203125 5.769531-.609375 7.160157-1.527344 13.296876-5.75 17.28125-11.890625 3.984376-6.140625 5.339844-13.46875 3.8125-20.628906-1.527343-7.160156-5.746093-13.296875-11.890624-17.28125zm-4.703126 29.617187c-1.769531 2.730469-4.496093 4.605469-7.675781 5.28125-3.183593.679688-6.4375.078126-9.164062-1.691406-5.628907-3.652344-7.238281-11.207031-3.585938-16.839844 2.328125-3.589843 6.242188-5.542968 10.230469-5.542968 2.269531 0 4.566406.632812 6.609375 1.957031 2.726563 1.769531 4.601563 4.496094 5.28125 7.675781.675781 3.179688.074219 6.433594-1.695313 9.160156zm0 0"/><path d="m283.644531 183.703125c3.851563 6.226563 9.898438 10.578125 17.027344 12.253906 2.101563.496094 4.222656.742188 6.328125.742188 5.035156 0 9.984375-1.398438 14.375-4.113281 6.222656-3.855469 10.574219-9.902344 12.253906-17.027344 1.675782-7.128906.480469-14.480469-3.375-20.707032-3.851562-6.222656-9.898437-10.574218-17.027344-12.253906-7.128906-1.675781-14.476562-.476562-20.703124 3.375-6.226563 3.851563-10.578126 9.898438-12.253907 17.027344-1.675781 7.125-.480469 14.476562 3.375 20.703125zm11.453125-17.214844c.746094-3.164062 2.679688-5.851562 5.445313-7.5625 1.949219-1.207031 4.148437-1.824219 6.382812-1.824219.9375 0 1.878907.105469 2.8125.328126 3.164063.742187 5.851563 2.675781 7.5625 5.441406 1.710938 2.765625 2.242188 6.03125 1.5 9.195312-.746093 3.167969-2.679687 5.851563-5.445312 7.5625-2.765625 1.710938-6.03125 2.246094-9.195313 1.5-3.164062-.746094-5.851562-2.679687-7.5625-5.445312-1.710937-2.761719-2.242187-6.027344-1.5-9.195313zm0 0"/><path d="m265.832031 101.160156c-14.195312-5.183594-29.960937 2.148438-35.144531 16.34375-2.511719 6.878906-2.195312 14.320313.894531 20.960938 3.085938 6.636718 8.574219 11.675781 15.453125 14.1875 3.089844 1.128906 6.253906 1.664062 9.371094 1.664062 11.191406 0 21.71875-6.90625 25.773438-18.007812 5.183593-14.199219-2.148438-29.964844-16.347657-35.148438zm2.035157 29.921875c-2.300782 6.304688-9.304688 9.558594-15.609376 7.257813-3.054687-1.113282-5.492187-3.351563-6.863281-6.300782-1.371093-2.949218-1.511719-6.253906-.398437-9.308593 1.800781-4.933594 6.480468-8 11.449218-8 1.382813 0 2.789063.238281 4.160157.738281 6.308593 2.304688 9.566406 9.304688 7.261719 15.613281zm0 0"/></symbol><symbol viewBox="0 0 800 800" fill="none" id="registration" xmlns="http://www.w3.org/2000/svg">
<path d="M550 750H500V625C499.961 591.86 486.779 560.088 463.345 536.655C439.912 513.221 408.14 500.039 375 500H225C191.86 500.039 160.088 513.221 136.655 536.655C113.221 560.088 100.039 591.86 100 625V750H50V625C50.0543 578.604 68.5091 534.123 101.316 501.316C134.123 468.509 178.604 450.054 225 450H375C421.396 450.054 465.877 468.509 498.684 501.316C531.491 534.123 549.946 578.604 550 625V750Z" fill="currentColor"/>
<path d="M300 100C324.723 100 348.89 107.331 369.446 121.066C390.002 134.801 406.024 154.324 415.485 177.165C424.946 200.005 427.421 225.139 422.598 249.386C417.775 273.634 405.87 295.907 388.388 313.388C370.907 330.87 348.634 342.775 324.386 347.598C300.139 352.421 275.005 349.946 252.165 340.485C229.324 331.024 209.802 315.002 196.066 294.446C182.331 273.89 175 249.723 175 225C175 191.848 188.17 160.054 211.612 136.612C235.054 113.17 266.848 100 300 100ZM300 50C265.388 50 231.554 60.2636 202.775 79.4928C173.997 98.7221 151.566 126.053 138.321 158.03C125.076 190.007 121.61 225.194 128.363 259.141C135.115 293.087 151.782 324.269 176.256 348.744C200.731 373.218 231.913 389.885 265.859 396.637C299.806 403.39 334.993 399.924 366.97 386.679C398.947 373.434 426.278 351.003 445.507 322.225C464.737 293.446 475 259.612 475 225C475 178.587 456.563 134.075 423.744 101.256C390.925 68.4374 346.413 50 300 50Z" fill="currentColor"/>
<path d="M642 309C642 295.193 653.193 284 667 284V284C680.807 284 692 295.193 692 309V492C692 505.807 680.807 517 667 517V517C653.193 517 642 505.807 642 492V309Z" fill="currentColor"/>
<path d="M550 400C550 386.193 561.193 375 575 375H758C771.807 375 783 386.193 783 400V400C783 413.807 771.807 425 758 425H575C561.193 425 550 413.807 550 400V400Z" fill="currentColor"/>
</symbol><symbol viewBox="0 0 74 33" fill="none" id="right-arrow" xmlns="http://www.w3.org/2000/svg">
<path fill-rule="evenodd" clip-rule="evenodd" d="M0 16.1413V16.8587C6.98687 20.4456 12.8637 25.8783 15.0198 32.9999C15.0212 33.0047 15.5144 32.7068 15.5407 32.6981C15.5672 32.6893 15.5115 32.7025 15.5098 32.6971C13.8759 27.2491 7.68559 20.7872 3.15498 16.8587C25.3022 17.3659 51.8716 16.6025 74 17.2174V15.7826L3.15498 16.1413C7.68559 12.2127 13.7388 5.50793 15.3861 2.07278e-05L14.6263 0C12.4891 7.13565 7.93343 11.4782 0 16.1413Z" fill="currentColor"/>
</symbol><symbol fill="currentColor" id="syringe" viewBox="0 0 504.938 504.938" xml:space="preserve" xmlns="http://www.w3.org/2000/svg">
<g transform="translate(1 1)">
	<g>
		<path d="M501.29,51.966l-12.359-12.359L464.214,14.89L450.972,1.648c-3.531-3.531-8.828-3.531-12.359,0    c-3.531,3.531-3.531,8.828,0,12.359l7.062,7.062l-56.497,56.497L357.4,45.786c-3.531-3.531-8.828-3.531-12.359,0l-24.717,24.717    c-1.766,1.766-2.648,3.531-2.648,6.179c0,2.648,0.883,4.414,2.648,6.179l6.179,6.179l-50.317,50.317c0,0,0,0-0.001,0.001    l-93.571,93.571c0,0,0,0-0.001,0.001s0,0-0.001,0.001l-56.496,56.496c-3.531,3.531-3.531,8.828,0,12.359l19.421,19.421    L127,339.745l-26.483,26.483c-7.851,7.851-9.351,19.164-4.506,28.341L1.648,488.931c-3.531,3.531-3.531,8.828,0,12.359    c1.766,1.766,3.531,2.648,6.179,2.648c2.648,0,4.414-0.883,6.179-2.648l93.95-93.95c3.829,2.488,8.344,3.909,12.864,3.909    c7.062,0,12.359-2.648,16.772-7.945l26.483-26.483l18.538-18.538l18.538,18.538c1.766,1.766,3.531,2.648,6.179,2.648    c2.648,0,4.414-0.883,6.179-2.648l150.069-150.069l50.317-50.317l6.179,6.179c1.766,1.766,3.531,2.648,6.179,2.648    c1.766,0,4.414-0.883,6.179-2.648l24.717-24.717c3.531-3.531,3.531-8.828,0-12.359l-30.897-30.897l56.497-56.497l6.179,6.179    c1.766,1.766,3.531,2.648,6.179,2.648c1.766,0,4.414-0.883,6.179-2.648C504.821,60.793,504.821,55.497,501.29,51.966z     M320.324,170.255L363.579,127l12.359,12.359l-43.255,43.255L320.324,170.255z M338.862,102.283l12.8,12.8l-43.697,43.697    l-13.241-13.241L338.862,102.283z M125.234,390.945c-1.766,2.648-6.179,2.648-8.828,0l-3.531-3.531    c-2.648-1.766-2.648-6.179,0-8.828l20.303-20.303l12.359,12.359L125.234,390.945z M157.897,357.4l-12.359-12.359l11.917-11.917    l12.359,12.359L157.897,357.4z M208.214,358.283l-62.676-62.676l43.697-43.697l24.276,24.276c1.766,1.766,3.531,2.648,6.179,2.648    c2.648,0,5.297-0.883,6.179-2.648c3.531-3.531,3.531-8.828,0-12.359l-24.276-24.276l18.979-18.979l24.717,24.717    c1.766,1.766,3.531,2.648,6.179,2.648c1.766,0,4.414-0.883,6.179-2.648c3.531-3.531,3.531-8.828,0-12.359l-24.717-24.717    l18.538-18.538l24.717,24.717c1.766,1.766,3.531,2.648,6.179,2.648c2.648,0,4.414-0.883,6.179-2.648    c3.531-3.531,3.531-8.828,0-12.359l-24.717-24.717l18.979-18.979l18.979,18.979l24.717,24.717l18.979,18.979L208.214,358.283z     M357.4,208.214l-12.359-12.359l43.697-43.697l12.8,12.8L357.4,208.214z M426.255,164.076l-6.179-6.179l-24.717-24.717    l-24.717-24.717l-25.6-25.6l-6.179-6.179l12.359-12.359L383,96.103c0,0,0,0,0,0l24.717,24.717c0,0,0,0,0.001,0.001l30.896,30.896    L426.255,164.076z M413.014,101.4l-6.131-6.131l-6.228-6.228l56.497-56.497l12.359,12.359L413.014,101.4z"/>
	</g>
</g>
</symbol><symbol viewBox="0 0 21 24" fill="none" id="tic-toc" xmlns="http://www.w3.org/2000/svg">
<path d="M15.0727 0H11.028V16.3478C11.028 18.2957 9.47234 19.8957 7.53642 19.8957C5.60049 19.8957 4.04484 18.2957 4.04484 16.3478C4.04484 14.4348 5.56592 12.8695 7.43272 12.8V8.69567C3.31887 8.7652 0.000152588 12.1391 0.000152588 16.3478C0.000152588 20.5913 3.38801 24 7.571 24C11.7539 24 15.1418 20.5565 15.1418 16.3478V7.9652C16.6629 9.07827 18.5296 9.73913 20.5002 9.77393V5.66957C17.458 5.56522 15.0727 3.06087 15.0727 0Z" fill="currentColor"/>
</symbol><symbol fill="currentColor" id="twitter" viewBox="0 0 33.88 33.88" xml:space="preserve" xmlns="http://www.w3.org/2000/svg">
<g>
	<path d="M30.414,10.031c0.014,0.297,0.021,0.595,0.021,0.897c0,9.187-6.992,19.779-19.779,19.779c-3.928,0-7.58-1.149-10.657-3.123   c0.546,0.063,1.099,0.095,1.658,0.095c3.26,0,6.254-1.107,8.632-2.974c-3.039-0.058-5.607-2.065-6.491-4.828   c0.424,0.082,0.858,0.125,1.308,0.125c0.635,0,1.248-0.084,1.83-0.244c-3.177-0.639-5.576-3.448-5.576-6.815   c0-0.029,0-0.058,0-0.087c0.939,0.521,2.01,0.833,3.15,0.869C2.646,12.48,1.419,10.35,1.419,7.938c0-1.274,0.343-2.467,0.94-3.495   c3.427,4.206,8.552,6.973,14.327,7.263c-0.117-0.509-0.18-1.038-0.18-1.584c0-3.838,3.112-6.949,6.953-6.949   c1.998,0,3.805,0.844,5.07,2.192c1.582-0.311,3.072-0.89,4.416-1.686c-0.521,1.624-1.621,2.986-3.057,3.844   c1.406-0.166,2.746-0.54,3.991-1.092C32.949,7.826,31.771,9.05,30.414,10.031z"/>
</g>
</symbol><symbol viewBox="0 0 24 24" fill="none" id="up-arrow" xmlns="http://www.w3.org/2000/svg">
<path fill-rule="evenodd" clip-rule="evenodd" d="M12 3C12.2652 3 12.5196 3.10536 12.7071 3.29289L19.7071 10.2929C20.0976 10.6834 20.0976 11.3166 19.7071 11.7071C19.3166 12.0976 18.6834 12.0976 18.2929 11.7071L13 6.41421V20C13 20.5523 12.5523 21 12 21C11.4477 21 11 20.5523 11 20V6.41421L5.70711 11.7071C5.31658 12.0976 4.68342 12.0976 4.29289 11.7071C3.90237 11.3166 3.90237 10.6834 4.29289 10.2929L11.2929 3.29289C11.4804 3.10536 11.7348 3 12 3Z" fill="currentColor"/>
</symbol></svg>