<svg width="700" height="700" viewBox="0 0 700 700" fill="none" xmlns="http://www.w3.org/2000/svg">
<path fill-rule="evenodd" clip-rule="evenodd" d="M700 350C700 543.301 543.301 700 350 700C156.7 700 0 543.301 0 350C0 156.7 156.7 0 350 0C543.301 0 700 156.7 700 350ZM350 153.125C350 141.044 340.206 131.25 328.125 131.25C316.044 131.25 306.25 141.044 306.25 153.125V393.75C306.25 401.6 310.456 408.848 317.272 412.743L470.396 500.242C480.887 506.236 494.248 502.591 500.242 492.104C506.236 481.613 502.591 468.252 492.104 462.258L350 381.055V153.125Z" fill="#9D875C"/>
</svg>
