<svg width="631" height="631" viewBox="0 0 631 631" fill="none" xmlns="http://www.w3.org/2000/svg">
<path d="M605.333 208.757C592.943 165.046 569.6 125.231 537.517 93.0752C505.433 60.9189 465.67 37.487 422 25.0123" fill="#CAA059"/>
<path d="M605.333 208.757C592.943 165.046 569.6 125.231 537.517 93.0752C505.433 60.9189 465.67 37.487 422 25.0123" stroke="#CAA059" stroke-width="50" stroke-linecap="round" stroke-linejoin="round"/>
<path d="M514 218.763C508.897 193.975 496.74 171.194 479 153.151C461.263 135.107 438.69 122.569 414 117.051" fill="#CAA059"/>
<path d="M514 218.763C508.897 193.975 496.74 171.194 479 153.151C461.263 135.107 438.69 122.569 414 117.051" stroke="#CAA059" stroke-width="50" stroke-linecap="round" stroke-linejoin="round"/>
<path d="M382.563 456.368L426.896 412.013C433.72 405.106 441.843 399.617 450.796 395.876C459.753 392.134 469.36 390.21 479.063 390.21C488.77 390.21 498.376 392.134 507.333 395.876C516.286 399.617 524.41 405.106 531.23 412.013L583.23 464.038C590.133 470.861 595.616 478.981 599.356 487.942C603.096 496.899 605.023 506.516 605.023 516.224C605.023 525.934 603.096 535.548 599.356 544.509C595.616 553.466 590.133 561.586 583.23 568.409L559.563 592.419C543.256 608.893 522.166 619.797 499.3 623.569C476.433 627.341 452.96 623.796 432.23 613.432C253.84 521.563 108.539 376.314 16.564 197.925C6.19503 177.164 2.67436 153.647 6.50769 130.758C10.341 107.868 21.331 86.7819 37.898 70.5353L61.5634 46.5261C75.4277 32.7396 94.182 25 113.73 25C133.278 25 152.032 32.7396 165.897 46.5261L218.23 98.8837C232.011 112.754 239.746 131.514 239.746 151.071C239.746 170.627 232.011 189.387 218.23 203.258L173.896 247.612C203.21 287.28 235.409 324.726 270.23 359.654C304.85 394.349 342.07 426.349 381.563 455.368L382.563 456.368Z" fill="#CAA059" stroke="#CAA059" stroke-width="10" stroke-linecap="round" stroke-linejoin="round"/>
</svg>
