<svg width="800" height="800" viewBox="0 0 800 800" fill="none" xmlns="http://www.w3.org/2000/svg">
<path d="M399.992 0C179.449 0 0 179.36 0 399.96C0 620.473 179.449 799.922 399.992 799.922C620.562 799.922 800 620.473 800 399.96C800 179.36 620.562 0 399.992 0ZM399.992 710.812C228.564 710.812 89.1117 571.367 89.1117 399.962C89.1117 228.483 228.564 89.0398 399.992 89.0398C571.441 89.0398 710.893 228.485 710.893 399.962C710.891 571.367 571.439 710.812 399.992 710.812Z" fill="#C1AB81"/>
<path d="M531.283 472.415C505.73 516.263 458.216 543.463 407.286 543.463C328.195 543.463 263.771 479.055 263.771 399.962C263.771 320.804 328.195 256.373 407.286 256.373C458.218 256.373 505.73 283.674 531.283 327.435L534.585 333.154H630.986L625.199 317.634C608.425 273.194 578.991 235.408 540.028 208.439C500.967 181.4 455.085 167.055 407.286 167.055C278.88 167.055 174.457 271.567 174.457 399.962C174.457 528.365 278.88 632.78 407.286 632.78C455.085 632.78 500.965 618.483 540.028 591.402C578.991 564.426 608.425 526.654 625.199 482.214L630.986 466.685H534.585L531.283 472.415Z" fill="#C1AB81"/>
</svg>
