<svg width="434" height="512" viewBox="0 0 434 512" fill="none" xmlns="http://www.w3.org/2000/svg">
<path d="M430.48 182.994C429.843 178.901 426.009 176.098 421.916 176.736C417.823 177.373 415.021 181.207 415.658 185.3C417.254 195.556 418.062 206.064 418.062 216.532C418.062 308.412 356.024 388.644 267.197 411.643C265.327 412.127 263.716 413.314 262.699 414.957L216.53 489.56L170.361 414.957C169.344 413.314 167.734 412.127 165.863 411.643C77.037 388.644 14.999 308.411 14.999 216.531C14.999 105.407 105.406 15 216.531 15C302.053 15 378.507 69.195 406.774 149.858C408.144 153.766 412.423 155.826 416.333 154.456C420.242 153.086 422.3 148.807 420.931 144.897C390.558 58.229 308.416 0 216.531 0C158.694 0 104.318 22.523 63.42 63.42C22.522 104.317 0 158.693 0 216.531C0 314.235 65.297 399.681 159.175 425.383L210.154 507.758C211.521 509.967 213.934 511.311 216.531 511.311C219.128 511.311 221.542 509.967 222.908 507.758L273.887 425.383C367.765 399.681 433.062 314.235 433.062 216.531C433.062 205.294 432.193 194.011 430.48 182.994Z" fill="black"/>
<path d="M140.141 372.554C164.037 384.249 189.738 390.179 216.531 390.179C312.47 390.179 390.523 312.126 390.523 216.187C390.523 120.248 312.47 42.194 216.531 42.194C120.592 42.194 42.5381 120.247 42.5381 216.187C42.5381 269.422 66.4301 319.019 108.088 352.259C111.325 354.843 116.045 354.312 118.628 351.074C121.211 347.836 120.681 343.117 117.443 340.534C79.3721 310.156 57.5381 264.832 57.5381 216.186C57.5381 128.518 128.862 57.194 216.53 57.194C304.198 57.194 375.522 128.518 375.522 216.186C375.522 303.854 304.198 375.178 216.53 375.178C192.042 375.178 168.559 369.762 146.734 359.081C143.015 357.26 138.522 358.8 136.701 362.52C134.88 366.24 136.42 370.733 140.141 372.554Z" fill="black"/>
<path d="M175.913 208.569C165.296 232.91 150.838 245.805 150.708 245.92C150.681 245.943 150.655 245.966 150.628 245.99C141.292 254.35 135.937 266.325 135.937 278.846C135.937 292.804 142.321 305.678 153.452 314.167C165.358 323.247 181.142 326.289 195.673 322.304C201.885 320.601 209.096 319.701 216.526 319.701C224.079 319.701 231.396 320.631 237.683 322.389C241.959 323.586 246.331 324.176 250.684 324.176C260.058 324.176 269.335 321.441 277.332 316.157C288.412 308.837 295.435 297.759 297.109 284.962C297.109 284.96 297.109 284.958 297.11 284.955C299.157 269.2 293.077 254.049 280.831 244.322C276.346 239.821 265.72 227.889 257.289 208.564C250.416 192.096 234.452 181.459 216.598 181.459C198.75 181.46 182.788 192.1 175.913 208.569ZM243.465 214.384C243.482 214.423 243.498 214.463 243.515 214.501C253.178 236.679 265.654 250.403 270.57 255.274C270.784 255.486 271.01 255.685 271.248 255.869C279.504 262.285 283.613 272.436 282.237 283.024C281.134 291.438 276.457 298.76 269.065 303.643C260.987 308.98 251.022 310.548 241.727 307.945C234.141 305.823 225.427 304.701 216.527 304.701C207.777 304.701 199.194 305.785 191.708 307.838C181.659 310.594 170.759 308.502 162.549 302.24C155.061 296.529 150.938 288.221 150.938 278.846C150.938 270.597 154.462 262.706 160.608 257.189C161.834 256.11 177.851 241.678 189.689 214.505C189.706 214.466 189.723 214.427 189.739 214.388C194.265 203.497 204.808 196.46 216.599 196.46C228.394 196.46 238.94 203.496 243.465 214.384Z" fill="black"/>
<path d="M153.037 182.527C149.232 175.164 143.436 169.294 136.716 165.997C129.351 162.384 121.414 162.231 114.943 165.578C101.96 172.285 98.3488 190.239 106.725 206.453C113.019 218.632 124.028 225.863 134.621 225.863C138.128 225.863 141.59 225.07 144.819 223.402C157.803 216.694 161.413 198.74 153.037 182.527ZM137.934 210.075C132.699 212.778 124.341 207.869 120.051 199.568C115.762 191.265 116.593 181.61 121.83 178.903C122.876 178.362 123.976 178.157 125.039 178.157C127.05 178.157 128.936 178.888 130.11 179.464C133.907 181.326 137.406 184.953 139.711 189.413C144 197.715 143.17 207.37 137.934 210.075Z" fill="black"/>
<path d="M255.38 104.415C249.982 103.734 244.589 105.344 239.79 109.086C232.558 114.726 227.282 124.843 226.022 135.488C225.023 143.93 226.389 152.329 229.867 159.138C233.794 166.826 240.139 171.717 247.192 172.547C248.011 172.652 248.831 172.705 249.649 172.705C254.227 172.705 258.741 171.056 262.835 167.864C270.059 162.232 275.33 152.123 276.593 141.478C277.592 133.036 276.225 124.637 272.745 117.829C268.825 110.159 262.497 105.272 255.38 104.415ZM261.697 139.714C260.914 146.316 257.665 152.875 253.612 156.034C251.994 157.295 250.482 157.848 249.029 157.659C246.982 157.418 244.812 155.42 243.225 152.314C241.115 148.184 240.274 142.693 240.918 137.25C241.699 130.646 244.953 124.081 249.014 120.914C250.42 119.817 251.754 119.264 252.986 119.264C253.159 119.264 253.33 119.275 253.498 119.297C253.524 119.3 253.551 119.303 253.578 119.307C255.628 119.549 257.8 121.549 259.388 124.656C261.499 128.785 262.34 134.274 261.697 139.714Z" fill="black"/>
<path d="M180.058 104.207C172.459 104.207 165.546 108.669 161.092 116.451C157.146 123.347 155.492 132.444 156.553 141.408C158.619 158.912 170.503 172.624 183.607 172.624C191.206 172.624 198.12 168.159 202.577 160.373C206.525 153.474 208.179 144.378 207.116 135.416C205.051 117.915 193.165 104.207 180.058 104.207ZM189.558 152.921C188.749 154.335 186.549 157.623 183.607 157.623C178.966 157.623 172.645 149.771 171.449 139.645C170.767 133.89 171.762 128.003 174.11 123.9C174.918 122.488 177.115 119.205 180.058 119.205C184.701 119.205 191.025 127.054 192.22 137.173V137.178C192.903 142.93 191.908 148.816 189.558 152.921Z" fill="black"/>
<path d="M288.242 223.417C291.471 225.086 294.932 225.878 298.44 225.878C309.032 225.878 320.043 218.646 326.337 206.467C334.71 190.257 331.101 172.301 318.12 165.591L318.119 165.59C311.645 162.244 303.708 162.398 296.344 166.012C289.624 169.309 283.828 175.179 280.024 182.543C271.65 198.754 275.26 216.708 288.242 223.417ZM293.35 189.427C295.654 184.967 299.154 181.341 302.951 179.478C304.125 178.902 306.013 178.17 308.025 178.17C309.089 178.17 310.188 178.375 311.234 178.915C316.469 181.623 317.299 191.28 313.012 199.581C308.72 207.884 300.363 212.794 295.128 210.09C289.892 207.385 289.062 197.729 293.35 189.427Z" fill="black"/>
</svg>
