<svg width="734" height="384" viewBox="0 0 734 384" fill="none" xmlns="http://www.w3.org/2000/svg">
<path fill-rule="evenodd" clip-rule="evenodd" d="M20.201 2.70361C37.122 -4.54806 56.718 3.29029 63.97 20.2113L33.3317 33.342C63.97 20.2113 63.9747 20.2223 63.97 20.2113L63.9527 20.1713C63.9503 20.1653 63.9433 20.1496 63.9527 20.1713L64.0833 20.4666C64.217 20.7673 64.4464 21.2779 64.773 21.9846C65.426 23.3986 66.4657 25.5946 67.8987 28.461C70.7673 34.1983 75.198 42.5903 81.2457 52.7506C93.379 73.1346 111.813 100.283 136.925 127.327C142.844 133.7 149.108 140.046 155.724 146.276C156.001 146.53 156.274 146.786 156.544 147.046C206.034 193.39 275.076 233.343 366.667 233.343C406.963 233.343 442.61 225.65 474.03 213.283C514.897 197.196 549.15 172.98 577.187 146.666C608.84 116.955 632.09 85.0099 647.44 60.3749C655.087 48.1056 660.69 37.7813 664.33 30.6449C666.147 27.0803 667.47 24.3226 668.303 22.529C668.723 21.6323 669.02 20.9776 669.193 20.5843L669.36 20.2113C676.617 3.29962 696.213 -4.54639 713.13 2.70361C730.05 9.95561 737.89 29.5516 730.637 46.4726L700 33.342C730.637 46.4726 730.64 46.465 730.637 46.4726L730.563 46.6399L730.447 46.9139L730.063 47.7756C729.747 48.4863 729.3 49.4676 728.727 50.699C727.58 53.161 725.913 56.6266 723.717 60.9329C719.33 69.5383 712.8 81.5443 704.02 95.6309C690.6 117.17 671.733 143.883 646.987 170.82L673.57 197.4C686.587 210.416 686.587 231.523 673.57 244.54C660.55 257.556 639.447 257.556 626.427 244.54L598.423 216.533C579.613 231.726 558.567 246.053 535.193 258.416L561.27 298.496C571.31 313.926 566.943 334.573 551.51 344.616C536.08 354.656 515.433 350.286 505.393 334.856L472.543 284.37C449.91 291.31 425.733 296.226 400 298.53V350.01C400 368.42 385.073 383.343 366.667 383.343C348.257 383.343 333.333 368.42 333.333 350.01V298.536C307.51 296.23 283.338 291.303 260.778 284.383L227.938 334.856C217.898 350.286 197.249 354.656 181.819 344.616C166.388 334.573 162.019 313.926 172.059 298.496L198.139 258.413C174.802 246.063 153.748 231.733 134.915 216.526L106.902 244.54C93.8847 257.556 72.779 257.556 59.7617 244.54C46.744 231.523 46.744 210.416 59.7617 197.4L86.343 170.82C58.1763 140.16 37.5907 109.75 23.9597 86.8496C16.9867 75.1349 11.7817 65.2979 8.27002 58.2749C6.51302 54.7609 5.17635 51.944 4.25068 49.94C3.78768 48.938 3.42735 48.1383 3.16835 47.5556L2.85535 46.8463L2.75568 46.6166L2.72001 46.534L2.70568 46.5006C2.69935 46.4859 2.69368 46.4726 33.3317 33.342L2.70568 46.5006C-4.54622 29.5796 3.28002 9.95561 20.201 2.70361Z" fill="#C1AB81"/>
</svg>
