<svg width="667" height="534" viewBox="0 0 667 534" fill="none" xmlns="http://www.w3.org/2000/svg">
<path d="M258 267C258 225.58 291.58 192 333 192C374.42 192 408 225.58 408 267C408 308.42 374.42 342 333 342C291.58 342 258 308.42 258 267Z" fill="#C1AB81"/>
<path fill-rule="evenodd" clip-rule="evenodd" d="M0 266.667C0 321.313 14.1653 339.717 42.4963 376.523C99.0653 450.013 193.937 533.333 333.333 533.333C472.73 533.333 567.6 450.013 624.17 376.523C652.5 339.717 666.667 321.313 666.667 266.667C666.667 212.02 652.5 193.618 624.17 156.811C567.6 83.3187 472.73 0 333.333 0C193.937 0 99.0653 83.3187 42.4963 156.811C14.1653 193.618 0 212.02 0 266.667ZM333.333 141.667C264.298 141.667 208.333 197.631 208.333 266.667C208.333 335.703 264.298 391.667 333.333 391.667C402.37 391.667 458.333 335.703 458.333 266.667C458.333 197.631 402.37 141.667 333.333 141.667Z" fill="#C1AB81"/>
</svg>
